<svg height="463pt" preserveAspectRatio="xMidYMid meet" viewBox="0 0 463 463" width="463pt" xmlns="http://www.w3.org/2000/svg"><g transform="matrix(.1 0 0 -.1 0 463)"><path d="m2130 4399c-19-4-65-9-102-11-38-2-68-6-68-10 0-5-8-8-17-8-15 0-16 2-3 10 11 7 12 10 2 10-7 0-20-7-29-16-9-8-22-13-30-10s-25-1-38-10-28-16-32-16-18-4-31-9-27-9-32-9-7-8-3-17c4-14 3-15-6-7-12 11-61 7-61-5 0-4-10-8-22-8-13-1-24-7-26-13-2-5-8-8-13-4-5 3-9 1-9-4 0-7-41-32-60-37-3 0-25-12-50-25-80-43-159-80-171-80-22 0-99-43-99-56 0-6-7-17-15-24s-15-20-15-29-21-34-46-55c-28-24-43-44-40-53 3-8 1-11-4-8-9 6-14-8-11-27 0-5-4-8-9-8-6 0-10-7-10-14 0-8-11-27-25-41-13-15-29-43-36-63-6-21-21-53-33-72-11-19-20-36-18-37 1-2 2-4 1-5-8-29-7-48 3-42 8 5 9 2 4-12-5-10-10-30-13-44-2-14-6-36-9-50s-6-39-7-57c-2-25 0-30 10-21 10 8 12 7 8-3-3-8-7-30-11-49-3-19-8-48-11-65-3-16-6-67-7-112 0-45-4-85-8-89-5-4-8-14-8-23 0-14 2-14 11-1 8 11 9 8 4-13-3-16-2-26 3-23s9-43 10-102c3-134 5-161 15-155 4 2 7-12 7-32 0-22 6-38 15-41 8-4 15-10 15-14 0-5-20 3-45 17-40 22-44 22-38 6 3-10 10-23 15-30 14-17-25-36-41-20-9 9-14 9-20-1s-15-9-44 3c-47 19-50 13-55-96-5-102 11-162 65-241 20-28 49-81 65-117 57-125 65-140 72-134 3 3 6-3 6-15 0-14 5-20 14-16 7 3 16-2 19-10 4-10 13-13 22-9 13 4 16 17 13 60l-4 54 30-3c28-3 31-6 28-35-3-26 1-33 15-34 10 0 26-2 36-4 26-5 32 21 13 50-18 27-21 55-6 55 6 0 10-10 10-22 0-13 12-34 25-47l25-23 1 33c3 60-3 104-15 111-14 9-18 69-17 253 0 33-2 132-5 220-7 206-7 193 1 242 5 29 14 44 26 48 11 4 19 14 19 24s7 31 15 48c22 45 24 79 3 75-22-3-22 6-3 32 19 25 19 37 1 30-11-4-14 2-11 25 2 17 7 37 12 44 4 6 8 27 9 46 1 31 0 33-11 17-24-32-24-1-1 47 13 26 17 42 10 36-10-8-14-8-14-1 0 6 4 13 9 17 5 3 17 29 27 58 15 48 42 105 54 117 3 3 16 22 30 42 18 28 28 34 37 26 12-10 18 0 14 25 0 4 5 7 13 7s17 9 21 19c4 12 14 20 28 19 46-2 68 2 62 12-4 6 1 7 10 3 10-3 21 0 26 8 7 11 9 10 9-4 0-16 5-18 33-12 17 3 27 3 21-2-9-6-8-11 2-21 11-10 14-10 14 0 1 7 8-3 16-22 16-37 33-52 48-43 5 3 6 1 2-5-4-7-2-12 3-12 6 0 11-8 11-19 0-14 6-18 25-16 14 2 23-1 19-6-3-5 8-14 23-20 67-27 92-43 80-51-8-5-6-8 6-8 10 0 15-5 12-10-4-6-1-17 5-25 10-12 10-18 0-30s-10-15 4-15c11 0 16-9 16-30 0-20-4-28-13-24-10 4-12-3-9-26 4-25 1-32-17-37-13-3-24-17-29-37-5-17-15-31-23-31s-14-7-14-15-4-21-8-27c-6-9-2-13 11-13 12 0 22 9 25 21s10 18 16 14c13-7-4-45-19-45-18 0-10-40 10-52 11-7 20-17 20-23s10-15 22-20c13-6 24-18 26-28 2-11 12-27 23-38 23-23 24-38 4-45-8-4-15-13-15-21 0-9-6-13-15-9-9 3-15 0-15-10 0-11-6-15-20-11-10 3-24-1-31-9-6-8-22-14-34-14-13 0-26-7-29-16-6-15-8-15-27 2-20 18-21 18-35-1-8-10-14-29-14-41 0-23-63-84-88-84-20 0-62-31-56-42 3-5 14-6 24-3s22 0 26-6c4-8 3-9-5-5-6 4-24 1-40-7-24-12-31-12-35-2-3 8 0 16 7 19 7 2 2 5-11 5-20 1-21-1-10-19 11-16 9-22-7-34-11-9-26-16-32-16-7 0-13-9-13-20s-6-20-13-20-24-10-37-22c-14-13-29-22-34-20-4 2-6-4-3-12 4-9 1-19-6-23-16-10-39-83-26-83 5 0 9-9 9-19 0-11 6-22 13-24 9-4 9-7-1-15-18-12-4-42 20-42 17 0 18-3 8-15s-10-15 1-15 11-2-1-10c-11-7-2-9 30-6 25 2 47 5 50 6s13 1 24 0c10-1 23 4 28 12 6 9 7 6 3-9-3-12-1-24 5-28s10 5 11 22c1 16 3 21 6 11 2-9 13-20 24-23 10-4 19-11 19-16s10-9 23-10h22l-22-9c-32-13-29-23 5-16 15 3 21 3 14 0-6-3-10-10-7-15 4-5 0-6-8-3s-17-2-20-10c-4-9-2-16 3-16 6 0 10-5 10-11s-7-8-16-5c-8 3-12 2-9-4s2-10-4-10-7-8-4-17c5-12 2-15-10-10-9 3-19 2-22-3-4-6-1-10 4-10 6 0 11-5 11-11s-9-8-22-3c-13 4-36 6-53 4-16-1-38-3-47-3-10-1-18-8-18-15 0-11-3-12-13-4-18 15-42-2-42-30 0-13-5-22-11-21-15 3-26-94-15-132 5-17 10-25 10-20 1 9 31-41 31-51 0-2-8-4-17-4-15-1-15-4 5-20 17-14 21-25 16-44-3-13-11-23-17-20-8 3-13-13-14-46-1-29 2-50 8-50s9-22 7-52c-3-44-7-54-28-65-19-10-21-13-7-13 10 0 15-4 12-10-3-5-1-10 4-10 6 0 11-4 11-10 0-5-9-10-21-10-13 0-18 4-13 12 4 7 3 8-4 4s-12-16-12-28c0-17 2-18 15-8 9 8 15 8 15 2s-4-12-10-14c-10-3 18-104 44-152 10-21 12-34 5-42s-7-14 1-19c15-9 12-25-5-25-16 0-21 35-5 45 5 3 6 13 3 22-6 15-7 14-14-3-5-14-8-5-13 31-9 61-53 187-69 197-17 11-27 10-27-3 0-20-26-38-41-28-16 10-46 12-36 3 10-11-31-42-72-55-20-6-45-19-55-28-11-9-16-10-12-3 4 6 2 12-3 12-10 0-15-12-13-31 1-3-12-3-29-1-18 3-29 0-29-8 0-7 7-10 15-7 8 4 17 2 20-3 4-6-5-10-19-10-16 0-26-6-26-15s-8-14-21-12c-13 1-26-6-33-18-13-23-27-35-41-35-5 0-3 5 5 11 12 9 12 10-3 5-10-3-21-6-23-6s-4-7-4-16-6-14-13-11c-10 4-13-2-10-18 4-20 2-22-21-18-19 4-26 2-24-8 2-9-8-15-27-17-18-2-41-15-57-34-19-20-34-29-47-25-15 3-18 1-14-12 5-13 3-14-8-4-18 18-46 16-53-3-4-10-12-14-22-10-14 5-48-17-39-25 2-3-14-5-35-5-44-2-83-30-56-40 33-13 14-23-36-20-42 3-49 2-37-7 17-13 49-78 49-98 0-8-10 1-22 18-27 38-62 50-84 28-9-8-20-15-25-15-6 0-6-7-1-17s7-23 5-30c-3-7 7-11 26-11 19 1 28 5 24 12-3 6 0 5 7-1 17-16 10-23-26-26-24-2-29-7-31-32-2-18 7-44 22-67 14-21 25-44 25-51s4-17 9-22c5-6 14-27 21-48 7-22 34-81 62-133 27-52 44-94 39-94s-13 5-16 10c-9 15-19 12-33-11-13-21-13-21 23-15 23 5 42 3 51-5 21-17 17-31-4-18-24 15-72 4-72-16 0-10-10-15-30-15-16 0-30-4-30-10 0-5 4-10 9-10s11-9 14-20c4-14-3-23-24-32-29-13-42-42-14-32 11 5 13 2 8-12s-3-16 13-10c14 5 16 4 8-4-9-9-17-9-32-1-17 9-21 8-25-7-4-16-4-16-12 2-5 12-3 21 6 27 8 5 10 9 4 9-5-1-19-7-29-15-11-8-28-15-39-15-10 0-15-4-12-10 6-11-42-26-52-16-4 3 2 6 13 6s25 9 32 20 19 20 27 20 15 4 15 9c0 7-12 13-47 21-4 1-9-3-11-9-2-7 3-8 14-4 12 4 15 3 10-6-5-7-20-10-41-7-19 3-37 1-40-4-3-6 4-10 16-10 32 0 16-12-22-16-40-5-51-14-17-14 21 0 25-4 21-20-3-11-12-20-19-20-8 0-14-5-14-12 0-6-3-8-6-5-4 4-24-3-45-15-31-17-39-28-39-50 0-19 5-28 16-28 9 0 14-6 11-12-4-14 20-37 39-38 6 0 11 7 11 15 0 9-6 14-12 11-9-3-10 1-1 19 11 23 28 24 25 2-1-7-1-20 0-30 1-15 3-16 15-5 8 7 13 15 11 18s12 6 30 7c27 1 33-2 28-14-4-11-2-14 5-9 15 9 11 48-5 42-7-3-13-1-13 3 0 5 6 12 13 14 9 4 9 6 0 6-7 1-13 8-13 17 0 8 4 13 9 10 5-4 11-1 13 6 3 7 18 13 34 14 50 3 55 4 50 12-3 5 4 14 14 22s17 17 14 22c-3 4-1 8 4 8 6 0 12-7 16-15 8-23 26-18 26 7 0 12 3 19 6 15 3-3 6-22 6-41 0-20 5-36 11-36 8 0 8-3 2-8-15-11-18-61-5-78 10-11 9-14-8-14-16 0-19 5-15 21 4 15 2 20-6 18-7-3-12-8-12-12 1-4 1-16 1-27 0-20 5-21 89-18 49 1 85 6 79 9-6 4-8 14-5 23 4 9 2 16-3 16-6 0-10-4-10-9s-12-11-26-14c-18-3-24-1-20 9 3 8 1 14-4 14-6 0-10-10-10-21 0-18-2-19-15-9-19 16-19 27-1 46 11 11 16 11 19 1 3-6 6 2 7 18l1 30 19-40c12-25 20-33 21-22 3 31 4 35 12 43 4 4 7-3 7-15s7-24 16-28c13-5 13-7 2-14-10-7-10-9 0-9 6 0 12-6 12-12 0-8 15-14 35-15 27-2 35 1 35 13 0 13-3 14-14 5-7-6-21-9-30-5-17 7-22 34-6 34 6 0 10-4 10-10 0-17 28-11 39 8 9 14 11 12 17-16 5-24 9-30 15-20 5 7 9 8 9 2 0-7 35-12 100-12 96-2 100-1 97 19-1 12 5 24 13 26 11 3 12 2 2-5-7-5-10-16-6-25 6-15 112-17 1409-17 772 0 1410 3 1419 6s14 9 11 13c-2 4 9 5 26 3 16-2 29-8 29-12 0-13 578-12 601 0 10 6 19 7 19 2 0-4 47-9 105-9 58-1 105 3 105 8s-5 9-12 9c-9 0-9 3 1 12 10 11 16 9 28-10 17-24 38-30 30-8-3 8 3 26 14 40 20 25 13 41-15 30-9-3-16-1-16 6 0 6 4 9 9 6s14 1 21 9c10 12 10 15-1 16-8 1-21 2-29 3s-21-3-27-8c-9-6-13-3-13 8 0 9-4 16-10 16-5 0-10-4-10-9s-9-12-19-16c-11-3-18-13-17-22 3-19 26-31 26-14 0 6 7 11 16 11s14-5 12-11-6-9-9-7-13-3-22-11c-11-9-17-10-17-2 0 6-7 11-15 11-18 0-20-16-2-23 7-4 8-6 1-6-6-1-17 6-24 14-7 9-8 15-2 15s9 8 7 17c-3 23 23 53 47 53 12 0 16 4 12 11-4 8 0 9 15 4 12-4 21-2 21 4s-5 11-11 11c-5 0-7 5-4 11 5 7 14 4 26-7 25-22 33-14 18 19-10 22-8 28 20 57 31 33 31 33 31 146 0 96-2 113-15 108-8-4-12-11-8-17s0-8-11-4c-9 4-15 3-12-2s-2-15-11-22c-10-8-14-9-10-2 4 6 3 14-2 17-5 4-12 2-16-4s-10-8-15-5-11 1-15-5c-8-13-35-13-35 1 0 5 5 7 10 4 6-3 10 1 10 9 0 9 7 16 15 16s15-5 15-12c0-11 14-3 16 10 6 28 18 51 24 47 4-2 15 4 25 15 18 20 18 20-1 17-10-2-30-9-43-16s-21-9-17-3c3 5-3 12-14 15-17 4-19 1-14-19 5-19 3-23-9-18-9 3-14 14-12 25 2 12-2 19-11 19-8 0-12-4-9-10 3-5-1-10-9-10s-20-9-26-20c-9-16-13-18-24-8-16 15-10 31 7 25 14-4 29 9 45 40 16 30 15 43-4 43-8 0-13 4-10 9s-6 12-21 16c-14 3-36 13-47 22-21 15-21 15 2 8 16-5 22-2 22 10 0 19-64 82-78 77-6-2-13 2-17 7-3 6-1 11 6 11s1 10-13 22c-14 13-31 34-38 48-8 15-15 20-18 12-2-6-8-9-13-6-15 9 10 34 27 27 8-3 14 0 14 6 0 14-16 14-41 0-17-9-20-7-17 7 2 9-3 19-9 21-7 3-13 0-13-6s-5-11-11-11-9 5-7 12c2 6-10 25-26 41-17 16-31 33-31 37 0 15-15 24-15 9-1-10-4-9-11 4-6 9-14 15-20 12-5-4-9-1-9 4 0 6 5 11 11 11 5 0 7 5 3 11-3 6-17 9-29 7-16-4-22-1-18 9 3 8-3 13-18 13-18 0-20 3-10 9 7 5 10 14 7 20-4 6-11 9-16 6s-15 3-22 14c-9 14-16 17-29 11-14-8-18-4-23 25-5 26-12 35-26 35-11 0-19 3-19 8 3 19-2 23-16 12-13-10-15-9-15 9 0 13-6 21-16 21-9 0-18 9-21 20s-13 20-23 20-20 7-24 15c-3 8-12 15-21 15-8 0-15 5-15 11 0 5-4 7-10 4-5-3-10-1-10 4 0 6-9 11-20 11s-20 5-20 11-7 9-15 5c-10-3-15 1-15 12 0 18-55 46-71 36-5-3-9 0-9 6 0 7-6 10-12 8-7-3-18 1-25 8-14 13-50 13-71 0-7-4-12-1-12 7 0 10-7 13-20 10-11-3-20-1-20 4 0 12-40 11-40-2 0-5-5-2-11 8-8 14-21 17-55 16-26-2-49 3-57 10-10 10 4 12 70 9 63-3 83-1 88 9 4 11-10 14-73 12-71-3-77-2-75 16 10 79 14 114 19 140 3 17 6 45 7 63 2 27 14 39 32 30 13-8 87 91 122 164 38 77 103 275 103 312 0 8 12 41 26 73s30 83 34 113c5 30 12 73 16 94 6 34 5 39-9 33-11-4-17-1-17 8 0 18-60 57-77 50-8-3-13 5-13 20 0 14 5 25 10 25 6 0 10 11 10 25s4 25 10 25c5 0 9 12 9 28-1 51 14 151 22 147 4-3 6 25 4 62-6 89-9 111-35 218-14 59-23 128-24 200-1 61-8 128-16 150-18 56-54 135-60 135-3 0-6 10-7 22s-24 42-50 67c-79 76-188 223-175 236 4 3-2 3-12-1-14-5-17-4-12 4 4 7 2 12-6 12-7 0-19 9-26 20-8 13-24 20-45 21-27 0-29 2-12 9 11 5 15 9 8 9-6 1-42 30-78 66-37 36-71 62-76 59s-9-1-9 4-25 19-55 32-55 27-55 32-4 6-10 3c-5-3-10-1-10 5 0 5-12 9-27 8-16-1-46 10-68 23-22 14-49 28-60 31s-51 18-90 32c-40 15-103 29-145 32-41 3-100 12-130 20-60 15-78 16-130 3zm-227-86c-7-2-19-2-25 0-7 3-2 5 12 5s19-2 13-5zm1031-549c4-10 2-13-7-8-8 6-8 3 1-8 8-10 21-14 30-11s14 3 10-1c-7-9 2-23 42-63 14-14 24-31 22-38-1-8 2-16 8-20 6-3 7 0 4 9s-1 16 5 16c10 0 16-20 12-42 0-4 6-5 14-2 11 5 13 2 9-10-3-9-13-16-21-16s-11-5-7-11c4-8 9-8 17 0 16 16 27 13 27-6 1-22 23-53 38-53 7 0 9-7 5-17-5-12-3-14 7-8 9 5 11 4 6-4-4-6-1-23 8-36s16-32 16-42c0-14 2-15 9-5 6 10 10 4 14-18 5-20 11-29 18-24 8 4 9 3 5-5-5-7 1-20 15-32 15-13 18-19 8-20-10 0-11-2-1-6 6-2 12-18 12-34 0-17 5-39 11-50 7-14 7-24 0-33-6-6-7-23-4-36 4-16 3-21-5-16s-10 2-6-8c7-19-6-20-39-3-21 11-23 16-15 33 9 16 8 17-3 7-17-17-24-16-44 3-20 20-33 10-15-11 11-13 10-14-4-9-17 7-17 17 0 58 5 14 4 17-4 12-16-10-16 16 0 32 9 9 7 12-10 12-12 0-22 6-23 13 0 10-2 10-6 0-7-18-23-16-23 3 0 8-4 13-9 9-6-3-15 4-21 15s-17 20-25 20c-7 0-15 10-17 23-2 12-9 23-15 23-7 1-17 2-23 3-5 0-7 8-4 16 4 9 0 15-10 15-9 0-16 6-16 14 0 20-49 65-79 73-14 3-33 15-43 25-10 12-18 14-20 7-2-6-10 2-18 18-8 15-25 43-37 62-13 19-23 43-23 55 0 17-2 18-10 6-15-22-12-5 6 39 10 27 20 38 30 34 9-3 14 2 15 13 0 17 1 17 8-1 8-19 8-19 15 2 4 13 10 22 14 21s27 2 52 6c25 5 50 8 57 7 6-1 14 3 18 9 8 14 12 13 19-6zm64-49c-3-3-9 2-12 12-6 14-5 15 5 6 7-7 10-15 7-18zm-318-95c0-5-2-10-4-10-3 0-8 5-11 10-3 6-1 10 4 10 6 0 11-4 11-10zm203-197c-7-2-19-2-25 0-7 3-2 5 12 5s19-2 13-5zm17-29c0-8-4-12-10-9-5 3-10 10-10 16 0 5 5 9 10 9 6 0 10-7 10-16zm-990-154c0-5-5-10-11-10-5 0-7 5-4 10 3 6 8 10 11 10 2 0 4-4 4-10zm-50-91c0-5-4-9-10-9-5 0-10 7-10 16 0 8 5 12 10 9 6-3 10-10 10-16zm1380-149c0-5-2-10-4-10-3 0-8 5-11 10-3 6-1 10 4 10 6 0 11-4 11-10zm38-28c6-18-15-14-22 4-4 10-1 14 6 12 6-2 14-10 16-16zm-1215-32c-19-22-29-19-20 5 4 8 13 15 22 15 13 0 12-3-2-20zm1117-180c0-5-4-10-10-10-5 0-10 5-10 10 0 6 5 10 10 10 6 0 10-4 10-10zm-74-26c19-17 22-22 8-16-20 10-52 42-42 42 3 0 18-12 34-26zm99-31c0-18 1-33 2-33s9 8 19 17c16 16 16 16 10-5-5-13-3-22 3-22s11 5 11 10c0 6 4 10 10 10 5 0 1-13-8-30-9-16-20-30-24-30-12 0-47 38-41 44 3 2-4 18-16 34-27 39-27 44 7 40 23-3 27-7 27-35zm135 6c0-11-4-18-10-14-5 3-7 12-3 20 7 21 13 19 13-6zm-183-21c-3-8-6-5-6 6-1 11 2 17 5 13 3-3 4-12 1-19zm187-35c-4-10-9-121-10-248-1-157-7-257-18-315-8-47-20-123-27-170-15-114-17-134-19-140-1-3-6 6-11 19-6 15-6 27 0 30 8 5 24 118 23 161 0 8 5 25 11 38 12 25 2 52-23 60-7 3-10 0-6-7 4-6 2-11-3-11-13 0-13-2-1 38 6 22 6 39-1 50-7 12-6 34 4 72 8 30 11 57 8 60-7 5-7 13 7 153 4 42 5 77 1 77s-12 14-19 30c-7 17-16 30-21 30s-9 7-9 16c0 10 6 14 14 11 9-4 13 0 12 11-3 15 15 42 28 42 3 0 6-7 6-16 0-8-4-12-10-9-5 3-10 2-10-4 0-19 43-6 53 16 6 13 14 23 20 23 5 0 6-8 1-17zm-2420-343c4-31 3-40-4-30-5 8-10 30-10 49 0 45 6 37 14-19zm216-75c0-17 5-36 11-42 8-8 7-17-4-33-15-21-15-21-26 11-12 36-14 79-5 104 9 24 24-1 24-40zm2347 3c-3-7-5-2-5 12s2 19 5 13c2-7 2-19 0-25zm-2510-56c22-22 23-50 1-36-13 8-48 84-47 104 0 8 5 2 11-14 6-17 22-41 35-54zm1362 51c-1-5-1-10 0-13 2-3 4-23 6-45 4-47 9-73 20-99 5-11 3-21-4-25-8-5-10-19-6-37 5-22 4-25-4-14-15 21-13 8 5-35 12-29 13-40 3-45-6-4-8-14-5-21 4-8 0-5-9 6-17 20-17 20-10-4 5-18 4-22-6-17-8 4-5 0 5-8 11-9 14-16 7-16s-10-4-7-9-2-8-12-7c-11 1-18-7-20-22s-9-22-17-18c-8 3-17 2-19-3-9-14-146-10-161 5-10 11-15 11-19 1-3-6-3-1 0 13 8 32 34 61 47 53 6-4 8 2 5 15-3 12-3 21 1 20 3-1 18 4 34 10 19 8 27 19 27 37 0 14-4 25-9 25-15 0-6 53 12 64 14 8 20 8 28-4 7-11 8-1 4 33-3 31-2 46 5 42 16-10 50 14 50 35 0 11-4 20-10 20-5 0-10 5-10 10 0 6 7 10 15 10s15 4 15 9c0 10 28 41 36 41 2 0 3-3 3-7zm895-29c3-8 2-12-4-9s-10 10-10 16c0 14 7 11 14-7zm-1569-4c3-5-1-10-9-10-9 0-16 5-16 10 0 6 4 10 9 10 6 0 13-4 16-10zm548-109c3-14 1-18-9-14-8 3-14 11-14 19 0 21 17 17 23-5zm1150-68c2-23 11-53 20-67 25-37 21-49-8-24-21 19-25 30-25 81 0 68 6 73 13 10zm-1206-20c-3-10-5-4-5 12 0 17 2 24 5 18 2-7 2-21 0-30zm233 22c0-8-2-15-4-15s-6 7-10 15c-3 8-1 15 4 15 6 0 10-7 10-15zm-980-54c5-11 10-26 9-33 0-7-6-2-12 12s-16 28-22 32c-6 5-6 8 2 8 7 0 17-9 23-19zm-27-31c3-11 1-18-4-14-5 3-9 12-9 20 0 20 7 17 13-6zm1167-40c0-4-6-10-14-13-10-4-12 0-9 14 5 18 23 18 23-1zm-50-10c0-5-2-10-4-10-3 0-8 5-11 10-3 6-1 10 4 10 6 0 11-4 11-10zm-1080-177c0-26-2-44-4-42-8 9-13 98-5 93 5-3 9-26 9-51zm37-35c-3-8-6-5-6 6-1 11 2 17 5 13 3-3 4-12 1-19zm-60-10c-3-8-6-5-6 6-1 11 2 17 5 13 3-3 4-12 1-19zm390-90c-3-8-6-5-6 6-1 11 2 17 5 13 3-3 4-12 1-19zm-7-28c0-5-4-10-10-10-5 0-10 5-10 10 0 6 5 10 10 10 6 0 10-4 10-10zm-33-117c-3-10-5-2-5 17s2 27 5 18c2-10 2-26 0-35zm1583 33c0-3-4-8-10-11-5-3-10-1-10 4 0 6 5 11 10 11 6 0 10-2 10-4zm-1912-171c-3-3-9 2-12 12-6 14-5 15 5 6 7-7 10-15 7-18zm1783-37c86-82 198-239 206-289 3-19 10-40 15-46 6-7 8-13 4-13s0-13 9-30c19-37 19-41-2-33-15 5-14 3 2-10 13-11 15-16 6-17-11 0-11-3-1-15 13-15 7-45-9-45-5 0-12 7-15 16-3 8-2 12 4 9s10-1 10 4c0 6-4 11-10 11-5 0-7 7-4 15 4 8 1 15-6 15-6 0-8 4-5 10 3 5-2 21-11 35s-14 36-12 50c3 13 2 23-1 21-6-4-32 20-31 29 0 3-8 24-17 47-10 24-16 47-15 51s-3 14-10 21c-7 8-22 26-33 42s-46 59-78 96c-65 77-63 89 4 26zm-64-30c-3-8-6-5-6 6-1 11 2 17 5 13 3-3 4-12 1-19zm-1825-50c-8-8-9-4-5 13 4 13 8 18 11 10 2-7-1-18-6-23zm75-5c-3-10-5-4-5 12 0 17 2 24 5 18 2-7 2-21 0-30zm-67-68c0-8-4-15-10-15-5 0-7 7-4 15 4 8 8 15 10 15s4-7 4-15zm-10-44c0-5-7-11-14-14-10-4-13-1-9 9 6 15 23 19 23 5zm23-91c7 0 6-4-3-10-13-8-12-10 4-10 24 0 13-13-15-17-17-3-18 0-9 16 7 14 7 20-2 23-7 3-8 9-3 19 8 12 10 11 13-3 2-10 9-18 15-18zm-1033-65c-7-8-18-15-24-15s-2 7 8 15c25 19 32 19 16 0zm1045 6c3-5 1-12-4-15s-11 1-15 9c-6 16 9 21 19 6zm-948-43c-3-8-6-5-6 6-1 11 2 17 5 13 3-3 4-12 1-19zm975-76c3-11 0-19-7-19s-10 8-7 19c2 10 6 18 7 18s5-8 7-18zm2092-79c12-25 14-39 7-41-6-2-11-12-11-23 0-10-4-19-9-19-12 0-9 33 4 43 6 4 6 10-2 15-13 8-26 62-14 62 4 0 15-17 25-37zm33-101c22-23 14-38-19-33-13 2 2-70 18-86 11-12 12-18 4-23-7-4-16-13-20-20-5-8-9-5-13 9-3 14-1 19 6 14 7-4 8 0 2 13-4 10-13 43-18 73-8 42-8 56 1 59 7 2 12 11 13 20 0 14 2 14 6 2 4-8 12-21 20-28zm-2037-12c-20-13-33-13-25 0 3 6 14 10 23 10 15 0 15-2 2-10zm2047-62c-3-7-5-2-5 12s2 19 5 13c2-7 2-19 0-25zm-1974-28c3-11 1-18-4-14-5 3-9 12-9 20 0 20 7 17 13-6zm1977-66c0-3-6-12-14-19-17-18-29-8-13 11 12 14 27 18 27 8zm985-14c3-5 1-10-4-10-6 0-11 5-11 10 0 6 2 10 4 10 3 0 8-4 11-10zm-1021-28c2-4 1-14-5-22-5-8-9-13-10-10 0 3-2 13-4 23-3 17 10 24 19 9zm-1900-47c-4-8-8-15-10-15s-4 7-4 15 4 15 10 15c5 0 7-7 4-15zm1896-8c0-8-7-14-15-14-11 0-12 4-4 14 6 7 13 13 15 13s4-6 4-13zm-3014-6c-4-5-1-11 5-13 7-2 6-15-4-38l-16-35 6 32c3 20 0 39-7 48-10 12-9 15 4 15 10 0 15-4 12-9zm41-5c-3-8 2-16 12-19 9-2 27-20 38-39 20-35 20-36 2-52-18-15-19-14-19 12 0 22 2 24 11 12 8-12 10-12 7-1-2 8-14 15-25 16-14 1-19-3-16-12 4-9 0-11-11-7-12 4-16 0-16-16 0-13 8-24 20-27 24-6 24-12 5-37-8-11-15-14-15-7s-4 9-10 6c-5-3-9 8-8 28 1 19-2 39-6 45-11 18 15 50 36 44 11-3 18 1 18 11 0 8-9 17-20 20-21 5-28 37-9 37 6 0 9-6 6-14zm-71-20c9-9 10-17 4-21-5-3-10-1-10 5s-8 10-17 9c-10-1-25-1-33 0-13 1-13 2 0 11 21 14 39 12 56-4zm1154-2c0-8 4-13 9-10 5 4 11 1 13-6 5-13-32-48-49-48-4 0 1 7 11 15 16 12 18 19 8 40-7 15-8 25-2 25s10-7 10-16zm-15-24c3-5-1-10-10-10s-13 5-10 10c3 6 8 10 10 10s7-4 10-10zm-1145-37c0-8 8-13 17-11 10 2 19-5 21-16s0-16-7-12c-6 4-11 1-12-6 0-7-4-3-9 10-6 13-18 22-32 22-21 0-21 0-2 16 10 8 13 13 7 9-8-4-13 0-13 11 0 13 3 14 15 4 8-7 15-19 15-27zm3033 14c3-7-4-19-15-26s-18-9-16-4c3 4 8 16 11 26 8 20 13 22 20 4zm-3083-7c0-5-2-10-4-10-3 0-8 5-11 10-3 6-1 10 4 10 6 0 11-4 11-10zm3141-92c15-30 10-32-12-4-11 14-22 41-24 59l-4 32 16-35c8-19 19-43 24-52zm-2924 40c-3-8-6-5-6 6-1 11 2 17 5 13 3-3 4-12 1-19zm-182-25c0-32-27-64-42-50-8 9 7 28 18 22 5-4 9 3 9 14 0 12-4 21-10 21-5 0-10-5-10-12 0-6-2-9-5-7-10 10 7 45 23 46 13 1 17-7 17-34zm-140 17c-3-5-1-10 6-10 10 0 10-3 1-12-10-10-15-10-22 2-14 22-12 30 6 30 8 0 12-4 9-10zm302-46c-3-16 0-24 9-24 8 0 14-5 14-11 0-5-4-7-10-4-5 3-10 1-10-5s-5-8-11-5c-5 4-9 19-7 33 2 17-2 26-10 25-6-2-12 1-12 7s7 10 15 10c9 0 12 6 9 18-5 15-4 15 6-1 7-11 10-30 7-43zm53 35c0-6-4-7-10-4-5 3-10 11-10 16 0 6 5 7 10 4 6-3 10-11 10-16zm-390-3c0-2 3-11 6-19s-1-17-9-20c-11-4-13 0-10 16s2 18-5 9c-5-8-21-15-36-15-14-1-26-8-26-14 0-12-13-17-32-14-5 0-8-6-8-14 0-9 6-12 15-9 8 4 15 2 15-3s-9-9-20-10-20 4-20 12c0 15-41 8-52-9-5-7-8-7-8 2 0 7 8 15 17 18 48 15 83 35 83 49 0 8 6 12 13 9 7-2 24 0 38 5 27 11 39 13 39 7zm212-28c-15-15-26-4-18 18 5 13 9 15 18 6s9-15 0-24zm1400 17c11 12 41-37 40-66-1-36-2-38-31-44-12-2-19 0-16 6 4 5 10 7 15 4s11-1 15 4c10 16-48 71-77 73-15 1-24 6-21 11 9 15 47 25 59 16 6-5 13-7 16-4zm-1195-3c8-5 9-13 3-22-7-10-10-11-10-2 0 6-7 12-15 12s-15-5-15-11c0-8-6-7-16 2-15 12-14 14 7 20 33 10 33 10 46 1zm-167-43c0-6-4-7-10-4-5 3-10 11-10 16 0 6 5 7 10 4 6-3 10-11 10-16zm57-31c-2-13-4-5-4 17-1 22 1 32 4 23 2-10 2-28 0-40zm160 0c-3-7-5-2-5 12s2 19 5 13c2-7 2-19 0-25zm1133 17c0-9-6-12-15-9-8 4-15 10-15 15s7 9 15 9 15-7 15-15zm-1315-35c7-24 7-24-9-5-8 11-16 27-16 35 0 20 16 1 25-30zm-482 6c4-10 1-13-8-9-8 3-12 9-9 14 7 12 11 11 17-5zm637-2c0-8-5-12-10-9-6 4-8 11-5 16 9 14 15 11 15-7zm90-5c0-5-7-9-16-9-8 0-13-4-10-8 2-4 1-14-5-22-7-13-9-13-9 0 0 20-40 20-41 0 0-10-2-11-6-2-7 18 18 47 27 31 6-8 13-6 26 8 19 20 34 21 34 2zm2808 9c-2-7 2-14 7-15 6-1 9 6 7 15-2 15-1 15 8 0 6-10 17-18 24-18 8 0 19-6 25-14 9-10 8-15-4-20-9-3-15 0-15 9 0 8-4 15-10 15-5 0-10-4-10-10 0-15-16-12-34 5-8 9-13 22-10 30 7 18 16 20 12 3zm52 2c0-5-4-10-10-10-5 0-10 5-10 10 0 6 5 10 10 10 6 0 10-4 10-10zm-3057-25c-7-21-13-19-13 6 0 11 4 18 10 14 5-3 7-12 3-20zm1257 11c-7-7-13-7-20 0-6 6-3 10 10 10s16-4 10-10zm1884-2c3-8 2-12-4-9s-10 10-10 16c0 14 7 11 14-7zm-3597-16c-3-8-6-5-6 6-1 11 2 17 5 13 3-3 4-12 1-19zm680 0c-3-8-6-5-6 6-1 11 2 17 5 13 3-3 4-12 1-19zm3802-14c3-16 1-17-13-5-19 16-21 34-3 29 6-3 14-13 16-24zm-3929 6c0-5-2-10-4-10-3 0-8 5-11 10-3 6-1 10 4 10 6 0 11-4 11-10zm3716-28c-4-3-12 0-19 8-9 10-9 11 1 6 7-5 12-1 13 11 1 17 2 17 6 0 3-10 2-21-1-25zm-556-8c0-2-7-4-15-4s-15 4-15 10c0 5 7 7 15 4 8-4 15-8 15-10z"/><path d="m3290 2598c0-9 5-20 10-23 13-8 13 5 0 25-8 13-10 13-10-2z"/><path d="m2316 2195c-9-26-7-32 5-12 6 10 9 21 6 23-2 3-7-2-11-11z"/><path d="m3330 1049c0-5 5-7 10-4 6 3 10 8 10 11 0 2-4 4-10 4-5 0-10-5-10-11z"/><path d="m3380 979c0-5 5-7 10-4 6 3 10 8 10 11 0 2-4 4-10 4-5 0-10-5-10-11z"/><path d="m3470 605c0-8 7-15 16-15 14 0 14 3 4 15-7 8-14 15-16 15s-4-7-4-15z"/><path d="m1050 3829c0-5 5-7 10-4 6 3 10 8 10 11 0 2-4 4-10 4-5 0-10-5-10-11z"/><path d="m1771 3147c-14-21-14-21-22-2-7 18-8 18-9-5-2-18-4-20-7-7-6 24-23 21-23-4 0-17 5-20 36-17 40 3 66 30 49 47-7 7-15 3-24-12z"/><path d="m1570 3029c0-5 5-7 10-4 6 3 10 8 10 11 0 2-4 4-10 4-5 0-10-5-10-11z"/><path d="m1890 3020c0-5 5-10 10-10 6 0 10 5 10 10 0 6-4 10-10 10-5 0-10-4-10-10z"/><path d="m1240 3010c0-5 5-10 11-10 5 0 7 5 4 10-3 6-8 10-11 10-2 0-4-4-4-10z"/><path d="m1220 2933c0-22 2-25 10-13 13 20 13 40 0 40-5 0-10-12-10-27z"/><path d="m1241 2893c-1-24 22-32 35-11 5 7 2 9-9 5-10-4-17 0-20 11-3 12-5 11-6-5z"/><path d="m1208 2893c-11-3-18-13-17-26 0-12 3-16 6-9 2 6 11 12 19 12s14 7 14 15-1 14-2 14c-2-1-11-3-20-6z"/><path d="m895 2680c-3-5-1-10 5-10s8-5 4-12-3-8 4-4c6 4 9 13 5 21-6 18-10 19-18 5z"/><path d="m515 2350c-3-6 1-7 9-4 18 7 21 14 7 14-6 0-13-4-16-10z"/><path d="m1560 2275c0-9 6-12 15-9 8 4 15 7 15 9s-7 5-15 9c-9 3-15 0-15-9z"/><path d="m1450 2265c0-8 7-15 15-15 9 0 12 6 9 15-4 8-10 15-15 15s-9-7-9-15z"/><path d="m3955 2273c11-3 29-12 40-22 19-15 19-15 5 3-13 18-13 19 0 14 8-3 24-2 35 3 13 5-1 7-40 7-33 0-51-3-40-5z"/><path d="m4060 2269c0-6 4-8 9-4 6 3 14-3 20-12 9-16 10-16 8 3-1 20-37 33-37 13z"/><path d="m4382 2264c-11-9-13-13-4-14 7 0 10-5 6-11-4-8-9-8-17 0-19 19-29 12-25-16 2-19-2-27-16-29-10-1-22-8-27-15-4-7-27-15-51-19l-43-7 35-10c19-6 29-12 23-12-20-1-15-19 6-26 18-6 19-11 9-55-4-18-39-34-47-22-3 5-17 9-31 10-87 7-88 7-78 19s4 17-14 14c-5 0-8 3-8 7 0 14-50 8-59-7-6-10-12-9-25 4-17 18-22 30-7 21 5-3 11 1 15 9 4 11-1 15-17 15-13 0-29 6-36 13-11 10-14 10-18 0-6-18-28-16-43 2-7 9-20 13-28 10-10-3-12 0-8 10 4 11-2 15-24 15-20 0-30-5-30-15 0-18-20-20-20-2-1 7-6 5-14-5-16-22-42-23-50-2-3 8-10 12-16 9s-7 1-4 9c7 19 0 20-27 5-11-5-17-14-14-20 4-5 3-9-2-8-19 3-25-2-15-14 8-9 30-11 76-7 40 3 64 2 63-5-1-5 8-11 21-13 12-2 22 1 22 7s10 11 23 11c16 0 28-10 40-32 10-21 16-27 16-15 1 23 18 22 26-3 8-26-17-54-34-37-8 8-11 7-11-5 0-13 7-15 32-11l33 5-25-22c-14-12-20-19-13-16 12 7 29-31 19-41-3-4-6 1-6 9 0 19-74 30-91 13-7-7-9-1-5 18 2 15 0 27-5 27-9 0-13-14-10-37 1-9-7-9-31-2-42 12-40 12-33-10 4-13 0-23-12-30-20-12-20-12 20-15 15-1 27 2 27 7s6 4 13-2c8-6 16-9 19-6s32 7 66 9c33 2 65 7 71 10 5 4 59 8 118 8 59 1 96 4 81 6-20 2-25 7-21 20 6 15 5 15-9 2-10-11-38-16-89-17l-74-2 50 24c62 31 145 35 145 8 0-14 8-18 40-17 40 1 46-15 7-18-70-5 255-21 386-18h27v155c0 167 2 161-52 157-10-1-18 5-18 13s-8 15-17 15c-15 0-16-2-3-10s13-10-2-10c-9 0-18 4-20 9-6 15-117 19-136 5zm114-20c-10-10-24-13-37-9-17 6-19 9-8 16 8 5 24 9 37 9 21 0 22-1 8-16zm107-21c-7-2-21-2-30 0-10 3-4 5 12 5 17 0 24-2 18-5zm-77-55c4-6 2-14-4-16-7-2-12-10-12-18s-4-14-10-14c-11 0-12 6-4 38 7 24 19 28 30 10zm-671-28c3-6-1-7-9-4-18 7-21 14-7 14 6 0 13-4 16-10zm565-76c0-3-4-2-10 1-6 4-10-5-10-19 0-16-6-26-15-26s-15 9-15 24c0 13-8 27-17 30-14 6-15 9-4 15 12 8 71-13 71-25zm156-6c5-7 2-9-9-5-9 3-18 1-21-6-2-7-5-4-5 6-1 19 24 23 35 5zm-195-67c11-13 17-27 14-30-4-3-10 1-14 8-5 8-14 10-21 6-8-5-10-2-6 11 3 11 1 26-4 34-7 11-10 6-11-20-1-32-2-33-9-10-4 14-9 18-10 10-1-11-4-9-10 5-12 27-12 43 0 25 6-9 10-10 10-3 0 18 34 21 39 3 2-8 12-26 22-39zm108 28c7 1 10-2 6-9-4-6-13-9-21-6s-14 1-14-4c0-21-18-9-22 15-5 22-3 23 16 12 12-6 27-10 35-8zm-325 2c4-5-3-7-14-4-23 6-26 13-6 13 8 0 17-4 20-9z"/><path d="m3573 2257c-3-6-1-7 5-3 7 4 12 0 13-11 0-10 3-13 6-5 2 6 10 12 16 12 5 0 8-3 4-6-6-6 16-34 27-34 3 0 1 11-5 24-12 25-55 41-66 23z"/><path d="m4160 2245c0-8 4-15 9-15s11 7 15 15c3 9 0 15-9 15-8 0-15-7-15-15z"/><path d="m1435 2220c4-6 11-8 16-5 14 9 11 15-7 15-8 0-12-5-9-10z"/><path d="m3534 2219c-7-12 9-16 36-8s26 9-8 13c-13 2-25-1-28-5z"/><path d="m1558 2203c-10-2-18-9-18-14 0-13 12-11 34 6 20 15 16 17-16 8z"/><path d="m3521 2184c0-11 3-14 6-6 3 7 2 16-1 19-3 4-6-2-5-13z"/><path d="m3545 2167c-11-11-14-17-7-13 6 4 12 2 12-3 0-6 5-11 11-11s9 6 6 14-1 16 6 19c6 2 7 6 2 9-6 3-19-4-30-15z"/><path d="m3985 2180c4-6 11-8 16-5 14 9 11 15-7 15-8 0-12-5-9-10z"/><path d="m4175 2180c-19-8-19-9 3-9 12-1 22 4 22 9 0 6-1 10-2 9-2 0-12-4-23-9z"/><path d="m4255 2180c3-5 11-10 16-10 6 0 7 5 4 10-3 6-11 10-16 10-6 0-7-4-4-10z"/><path d="m3625 2170c-3-5-4-14 0-19 6-10-6-13-72-13-24 0-43-4-43-9s14-9 31-9 39-5 50-10c15-8 19-7 19 5 0 18 16 20 23 3 3-7 6 4 6 25 1 38-3 45-14 27z"/><path d="m4036 2148c3-5 10-6 15-3 13 9 11 12-6 12-8 0-12-4-9-9z"/><path d="m4168 2153c6-2 18-2 25 0 6 3 1 5-13 5s-19-2-12-5z"/><path d="m3 2125c0-14 3-25 8-25s8 6 7 13c-2 6 3 11 10 10 6-2 12 4 12 12s-8 15-19 15c-13 0-18-7-18-25z"/><path d="m694 2134c3-9 6-21 6-27 0-8 3-8 10-1 12 12 3 44-12 44-6 0-7-7-4-16z"/><path d="m720 2140c0-5 4-11 10-15 5-3 7-12 3-20-8-23 14-18 31 7 22 31 20 35-14 36-16 0-30-3-30-8z"/><path d="m483 2108c1-7-13-15-33-19-35-6-35-6-4-8 28-1 54 13 54 31 0 4-4 8-10 8-5 0-9-5-7-12z"/><path d="m183 2083c97-4 97-4 86-26-7-12-13-23-14-25-1-1-16 3-34 9-24 9-29 14-19 20 9 6 4 9-16 9-24 0-27-2-16-15 19-23 6-28-34-14-27 10-39 10-47 2-16-16-39-5-39 19 0 11-4 16-11 13-6-4-9-24-8-46 2-21 0-41-4-45s-7 1-7 11c0 25-10 13-16-19-5-29-2-31 25-14 15 9 22 8 35-4 14-14 14-17 0-28-8-8-12-21-9-31 7-22 2-23-26-8-11 5-17 14-14 19s1 11-5 15c-7 4-10-46-10-147v-153l36 1c28 2 34-1 30-13-3-8-6-21-6-30 0-11-7-13-30-8-26 6-30 4-30-14 0-17 4-19 22-12 12 4 84 6 159 3 85-3 149-1 168 6s33 7 36 1c4-5 26-9 50-9 25 0 50-6 58-15 8-8 17-12 21-10 3 3 2-1-4-7-13-16-13-29 1-26 6 2 13-4 14-13 2-12-7-16-44-17-25-1-115-4-200-8-123-5-155-3-162 8-14 21-11 28 11 28 11 0 20 5 20 10 0 6 12 11 28 11 15 1-4 6-42 11-93 13-138 4-134-25 2-12 8-25 13-29 6-5 5-8-2-8s-13-7-13-15 5-15 11-15c7 0 9-12 5-34-4-20-2-37 4-41 14-9 13-26-2-23-9 2-13-10-13-36 0-24 5-40 13-42 7-1 8 0 1 3-6 3-1 10 13 17 32 16 35 52 6 77-21 19-21 21-5 30 9 6 17 21 17 34 0 16 4 23 13 19 17-6 37-110 25-122-6-6-1-12 11-15s24-1 27 5c4 6 10 5 15-3 5-9 9 12 9 53 0 37-4 70-10 73s-7-1-4-10c4-10-2-24-14-35-25-24-36-5-18 31 10 20 19 24 49 22 22-1 47-11 60-23l22-21 3 20c2 12 8 21 13 21 6 0 7-4 4-10-3-5-1-10 4-10 6 0 11 4 11 9 0 8 48 12 180 14 46 1 55-1 54-16-1-13 6-17 30-17 23 0 36 7 51 30 23 34 30 37 39 14 3-8 2-13-2-10-10 6-42-56-42-80 0-9-7-23-16-31-8-9-13-25-10-35 2-11 2-17-2-14-3 4-11-7-18-24-12-27-17-30-61-30-26 0-57-7-67-15-11-8-18-15-15-16 28-5 146-5 154 0 6 3 26 7 45 8 87 5 105 11 139 49 19 22 31 32 26 24-7-14 29 18 73 63 9 9 22 17 28 17 7 0 27 12 45 27l33 28-40 12-39 13 37-4c31-4 36-2 32 12-4 11-1 10 7-3 6-11 13-22 15-23 5-7 104 51 100 57-9 13 21 39 52 46 18 3 47 14 65 23 29 15 30 17 10 20-16 2-24 14-33 53-11 46-14 49-43 50-30 0-28 1 15 16 29 10 50 23 54 35 4 14 9 16 18 9 6-6 22-9 33-8 17 1 19 4 11 14s-6 13 9 13c16 0 19 6 17 41-3 59-14 129-21 129-3 0-14-9-24-21-19-23-67-32-86-17-9 7-13 7-13-2 0-10-3-10-15 0s-15 10-15-3c0-8-14-20-31-27-22-9-27-15-17-21 8-5 16-2 21 7 5 8 12 12 18 9 5-4 9-1 9 6 0 8 7 6 19-5 11-10 39-24 63-31 24-8 37-14 30-14-25-2-1-21 26-21 24-1 25-2 9-11-23-13-67 1-109 36-34 29-53 33-44 9 4-12 2-15-9-10-8 3-15 0-15-7s-7-3-15 7c-8 11-18 17-21 13-4-4-13-2-21 4-17 15-16-1 2-25 17-23 20-46 4-46-5 0-8 4-5 9 8 12-56 21-70 10-8-6-10-2-7 15 3 16-2 33-17 48l-21 23 33 3c18 2 37 10 41 18s16 14 25 14c20 0 48 40 35 49-5 3-12 14-16 24-3 9-13 17-21 17-9 0-16 11-18 28-2 19-8 26-21 24-10-2-21 7-29 22-9 22-14 24-26 13-13-9-14-9-8 1 5 8-1 12-19 12-14 0-28-7-31-15s-21-17-40-21c-19-3-34-10-34-15s-7-6-15-3c-9 4-15 11-14 18 3 27-2 36-22 36-11 0-17 5-14 10 11 17-5 11-28-11-13-13-16-20-7-17 10 4 15-1 15-16 0-18-5-21-23-18-15 3-21 10-18 18 4 10-2 14-18 14-14 0-26-5-28-12-7-20-46-19-61 3-15 20-15 20-33 1-11-11-30-23-43-27-20-6-23-4-18 9 9 23-2 46-19 39-7-3-16 2-20 10-3 8-13 14-22 12-13-2-16-11-15-36 1-19-1-28-3-21-3 6-10 9-16 6-6-4-8 6-5 25l5 31-121-2-122-2zm151-121c-6-4-13-15-17-24-8-22-36-23-63-3-18 14-18 14 9 15 33 0 62 24 51 42-4 7 2 5 12-5 12-12 15-20 8-25zm572 15c8 3 14 0 14-6s-9-11-20-11c-14 0-20 6-19 23 1 16 3 17 6 5 2-10 10-15 19-11zm31 17c-3-3-12-4-19-1-8 3-5 6 6 6 11 1 17-2 13-5zm-497-8c0-3-4-8-10-11-5-3-10-1-10 4 0 6 5 11 10 11 6 0 10-2 10-4zm145-26c-3-5-15-10-25-10s-22 5-25 10c-4 6 7 10 25 10s29-4 25-10zm371-7c21-28 16-39-6-15-11 12-20 24-20 27 0 11 13 4 26-12zm-582 1c8-3 13-11 10-19-3-7 3-15 13-18 38-13 82-51 83-71 0-4-8-5-17 0-24 10-112 5-136-8-15-8-18-7-12 3 6 9 3 11-9 6-49-19-62-18-63 3-1 16 2 20 16 15 22-7 53 4 45 16-5 9 11 19 43 23 22 3 30 35 11 47-15 10-7 12 16 3zm-192-37c-2-10 1-16 7-15 9 3 11-1 11-27 0-19-14-19-33 0-8 8-18 11-21 7-4-3-4 2 0 12 5 14 4 17-5 11-10-6-11-3-1 14 13 26 46 24 42-2zm-38-62c-4-8-8-15-10-15s-4 7-4 15 4 15 10 15c5 0 7-7 4-15zm566-11c0-17-12-18-28-2-18 18-15 27 8 21 11-3 20-12 20-19zm-5-34c-3-5-13-10-21-10s-12 5-9 10c3 6 13 10 21 10s12-4 9-10zm-158-31c-14-8-22-8-30 0s-3 11 19 11c25-1 27-2 11-11zm566-16c-1-12 6-24 20-31l22-11h-22c-12-1-28 6-37 14-8 8-22 15-30 15-23 0-19 15 7 28 29 14 42 9 40-15zm-233-27c0-10-25-13-65-7-5 1 1 7 15 14 27 15 50 11 50-7zm118-27c16-26 8-24-23 5-21 19-22 23-8 20 11-3 24-14 31-25zm-154-26c32-5 38-4 31 8-7 11-6 12 7 2 8-7 18-10 21-6 4 3 13 0 21-6 8-7 21-9 28-5 8 4 10 3 5-2-12-12-128-14-150-2-14 7-24 5-37-7-18-16-19-16-17 4 1 12 7 21 14 21s13 8 13 17c0 16 1 16 13 0 6-10 30-20 51-24zm286 17c0-5-5-10-11-10-5 0-7 5-4 10 3 6 8 10 11 10 2 0 4-4 4-10zm-397-70c-4-16-13-20-42-18l-36 1 34 4c26 3 31 7 20 14-12 8-12 10 1 18 19 13 29 5 23-19zm41-4c-5-14-9-15-15-5-5 8-3 17 4 21 15 9 19 4 11-16zm281 14c-3-5 1-10 9-10 9 0 16-4 16-10s-32-10-77-10c-54 0-73 3-63 10 8 5 26 10 40 10s32 5 40 10c20 13 43 13 35 0zm-435-15c0-8-7-15-15-15s-15-4-15-10c0-5-8-10-17-10-10 0-31-9-48-20-39-26-57-25-25 1 14 11 19 18 12 14-11-6-12-3-3 12 7 14 18 19 33 16 13-2 34 3 48 11s26 14 28 15c1 1 2-6 2-14zm190-5c-8-5-19-10-25-10-5 0-3 5 5 10s20 10 25 10c6 0 3-5-5-10zm41-44c5 3 9 0 9-5 0-6-9-11-20-11-14 0-18 5-13 17 4 11 8 13 11 5 2-7 8-10 13-6zm249 5c0-6-4-13-10-16-5-3-10 1-10 9 0 9 5 16 10 16 6 0 10-4 10-9zm-510-11c0-5-9-10-20-10s-20 5-20 10c0 6 9 10 20 10s20-4 20-10zm37-6c-3-3-12-4-19-1-8 3-5 6 6 6 11 1 17-2 13-5zm270 0c-3-3-12-4-19-1-8 3-5 6 6 6 11 1 17-2 13-5zm-260-40c2-6-6-10-19-8-31 3-30 3-23 15 8 12 37 8 42-7zm278 6c4-6-5-10-20-10s-24 4-20 10c3 6 12 10 20 10s17-4 20-10zm-845-40c11-7 6-10-20-10s-31 3-20 10c8 5 17 10 20 10s12-5 20-10zm804-19c2-3-50-7-115-9-72-1-119 2-119 7 0 17 224 19 234 2zm-791-8c-7-2-21-2-30 0-10 3-4 5 12 5 17 0 24-2 18-5zm820-20c-7-2-21-2-30 0-10 3-4 5 12 5 17 0 24-2 18-5zm-48-43c-4-7 3-9 22-5 25 5 26 4 6-4-13-6-23-16-24-23 0-7-4-4-9 7-12 28-12 35 1 35 5 0 7-5 4-10zm-34-43c-10-9-11-8-5 6 3 10 9 15 12 12s0-11-7-18zm-224-44c-3-10-5-4-5 12 0 17 2 24 5 18 2-7 2-21 0-30zm208 17c3-6-1-7-9-4-9 3-16 1-16-6 0-6-5-8-11-4-8 4-7 9 2 15 18 11 26 11 34-1zm-132-27c-7-3-14-17-14-31l-2-27-4 25c-3 14-10 28-15 31-6 4 3 6 18 6 16 0 23-2 17-4zm28-36c-10-9-11-8-5 6 3 10 9 15 12 12s0-11-7-18z"/><path d="m628 2083c6-2 18-2 25 0 6 3 1 5-13 5s-19-2-12-5z"/><path d="m4155 2071c-9-15 33-23 52-11 17 11 17 11 1 6-10-3-18-1-18 4 0 13-27 13-35 1z"/><path d="m3609 2068c-11-44-10-45 74-51 38-2 57 0 57 8 0 7-13 9-35 7-22-3-35 0-35 7 0 9-5 9-20 1-16-8-20-8-20 4s-18 34-21 24z"/><path d="m3687 2063c-10-9-9-23 1-23 5 0 9 7 9 15 0 17-1 18-10 8z"/><path d="m3715 2059c-4-6-5-12-2-15 2-3 7 2 10 11 7 17 1 20-8 4z"/><path d="m920 2050c0-5 5-10 11-10 5 0 7 5 4 10-3 6-8 10-11 10-2 0-4-4-4-10z"/><path d="m3500 2040c-24-8-23-8 8-9 17-1 32 4 32 9 0 11-5 11-40 0z"/><path d="m3791 2043c3-21-2-33-15-33-8 0-17 6-19 13-3 7-6 5-6-5-1-10 6-18 14-18s15-4 15-9 9-7 20-4c22 6 23 8 14 41-6 20-26 33-23 15z"/><path d="m1101 2018c-4-13-11-37-14-54l-6-31 62 22c54 18 62 24 65 48 3 28-6 35-24 17-12-12-44-3-44 11 0 19-31 8-39-13z"/><path d="m3560 2036c0-2 7-6 15-10 8-3 15-1 15 4 0 6-7 10-15 10s-15-2-15-4z"/><path d="m3860 2015c0-9 6-12 15-9 8 4 15 10 15 15s-7 9-15 9-15-7-15-15z"/><path d="m3587 1994c-4-4-7-14-7-23 0-11 3-12 11-4 6 6 10 16 7 23-2 6-7 8-11 4z"/><path d="m3460 1975c0-8 5-15 10-15 6 0 10 7 10 15s-4 15-10 15c-5 0-10-7-10-15z"/><path d="m3503 1954c-7-3-9-12-6-21 4-10 2-14-4-10-11 7-28-21-19-30 3-3 21-5 40-6 20-1 36-5 36-11 0-10 15 2 15 12 0 4 3 12 7 18 7 10 2 12-42 16-13 2-16 6-10 12 20 20 11 31-17 20z"/><path d="m4003 1923c-24-8-13-25 12-21 14 3 25 1 25-4s5-6 10-3c18 11 11 27-10 22-10-3-20-2-22 3-2 4-9 5-15 3z"/><path d="m3604 1908c-4-5-3-12 0-15 7-8 36 4 36 15s-29 11-36 0z"/><path d="m3655 1910c3-5 8-10 11-10 2 0 4 5 4 10 0 6-5 10-11 10-5 0-7-4-4-10z"/><path d="m4128 1913c7-3 16-2 19 1 4 3-2 6-13 5-11 0-14-3-6-6z"/><path d="m4481 1896c1-22 14-41 29-41 12 0 60 39 60 48 0 1-20 3-45 3-28 1-45-3-44-10zm36-12c-3-3-12-4-19-1-8 3-5 6 6 6 11 1 17-2 13-5z"/><path d="m1055 1890c3-5 8-10 11-10 2 0 4 5 4 10 0 6-5 10-11 10-5 0-7-4-4-10z"/><path d="m4170 1882c0-14 6-22 18-22 14 0 15-2 2-10-11-7-6-10 20-10h35l-24 19c-13 10-20 20-15 23s4 4-2 2c-6-1-17 3-23 9-8 8-11 5-11-11z"/><path d="m4386 1888c3-5 9-6 14-3s12 0 16-6c4-8-7-10-40-8-32 3-46 0-46-8 0-9 16-13 49-13 44 0 49 2 53 25 5 22 2 25-23 23-15-1-25-6-23-10z"/><path d="m4263 1883c-19-7 3-42 24-39s30 26 10 26c-9 0-17 4-19 9-1 4-9 6-15 4z"/><path d="m4450 1871c0-12 5-21 10-21 6 0 10 6 10 14s-4 18-10 21c-5 3-10-3-10-14z"/><path d="m4574 1879c-3-6-1-16 5-22 8-8 11-5 11 11 0 24-5 28-16 11z"/><path d="m4030 1870c-10-7-11-10-2-10 6 0 12-4 12-10 0-5-20-10-45-10-42 0-45-2-45-26 0-14 4-23 10-19 6 3 10 1 10-4 0-6-4-11-8-11-10 0-14-38-7-68 5-19 8-21 27-11 17 9 20 9 15-4-4-10 2-17 16-21 49-13 49-13 43 96-3 56-7 103-9 104-1 2-9-1-17-6zm-5-80c-3-5-12-10-18-10-7 0-6 4 3 10 19 12 23 12 15 0zm-25-46c0-8-5-12-10-9-6 4-8 11-5 16 9 14 15 11 15-7z"/><path d="m4615 1870c-3-5-1-10 4-10 6 0 11 5 11 10 0 6-2 10-4 10-3 0-8-4-11-10z"/><path d="m3473 1813c9-2 25-2 35 0 9 3 1 5-18 5s-27-2-17-5z"/><path d="m3538 1813c7-3 16-2 19 1 4 3-2 6-13 5-11 0-14-3-6-6z"/><path d="m3597 1813c18-2 50-2 70 0 21 2 7 4-32 4-38 0-55-2-38-4z"/><path d="m4340 1810c0-5 5-10 10-10 6 0 10 5 10 10 0 6-4 10-10 10-5 0-10-4-10-10z"/><path d="m3596 1791c-3-4 18-6 47-4 37 2 48 0 37-7-13-8-12-10 3-10 9 0 17 7 17 15 0 11-12 15-49 15-28 0-52-4-55-9z"/><path d="m4340 1754c0-8 5-12 10-9 6 3 10 10 10 16 0 5-4 9-10 9-5 0-10-7-10-16z"/><path d="m3680 1750c0-5 5-10 11-10 5 0 7 5 4 10-3 6-8 10-11 10-2 0-4-4-4-10z"/><path d="m4450 1715c1-30 1-30 13-7 7 12 16 20 19 16 4-3 15-1 25 5s14 11 8 12c-62 6-65 5-65-26z"/><path d="m4610 1730c-13-8-12-10 3-10 9 0 17 5 17 10 0 12-1 12-20 0z"/><path d="m3301 1714c0-11 3-14 6-6 3 7 2 16-1 19-3 4-6-2-5-13z"/><path d="m3892 1690c3-33 2-34-32-34-19 1-44 5-54 9-13 6-23 3-33-10-20-29-11-40 31-37 25 3 44-2 57-14 10-9 22-14 26-10s1 11-7 16c-13 9-13 10 0 11 10 0 8 3-5 9-16 7-17 9-3 9 9 1 19-3 22-7 2-4 21-9 40-10 30-2 36 1 36 18 0 11-5 20-11 20s-9-6-6-14c4-9 0-13-11-12-9 2-20 17-25 37-12 49-29 62-25 19z"/><path d="m4276 1711c-4-7-5-15-2-18 9-9 19 4 14 18-4 11-6 11-12 0z"/><path d="m4340 1705c0-8 5-15 10-15 6 0 10 7 10 15s-4 15-10 15c-5 0-10-7-10-15z"/><path d="m4245 1700c-3-5-1-10 4-10 6 0 11 5 11 10 0 6-2 10-4 10-3 0-8-4-11-10z"/><path d="m3572 1670c15-23 73-28 81-7 3 9-6 11-34 9-24-3-39 0-39 7 0 6-5 11-10 11-6 0-5-8 2-20z"/><path d="m4258 1673c7-3 16-2 19 1 4 3-2 6-13 5-11 0-14-3-6-6z"/><path d="m3301 1654c0-11 3-14 6-6 3 7 2 16-1 19-3 4-6-2-5-13z"/><path d="m3980 1640c0-12 4-18 10-15 5 3 7 0 4-9-4-11 4-17 28-21 45-9 596 0 606 9 4 4 0 6-8 4-9-2-14 3-12 11 2 11 0 12-10 4-7-6-22-7-33-3s-29 4-40 1c-11-4-103-6-205-5-310 3-294 2-318 24l-22 21z"/><path d="m3710 1640c-9-6-10-10-3-10 6 0 15 5 18 10 8 12 4 12-15 0z"/><path d="m1160 1630c0-5 9-6 20-3 14 4 20 1 18-8-2-10 9-15 33-17 30-2 37 1 42 17 5 19 1 20-54 20-32-1-59-5-59-9z"/><path d="m3270 1620c0-4 9-10 20-13s20-2 20 3c0 4-9 10-20 13s-20 2-20-3z"/><path d="m3350 1620c0-5 5-10 11-10 5 0 7 5 4 10-3 6-8 10-11 10-2 0-4-4-4-10z"/><path d="m3392 1605c-10-8-21-13-23-12-3 1-2-2 2-6 3-4 33-7 65-5 55 3 57 4 36 16-35 20-58 22-80 7z"/><path d="m3800 1600c0-5 5-10 11-10 5 0 7 5 4 10-3 6-8 10-11 10-2 0-4-4-4-10z"/><path d="m3275 1591c-3-5-2-12 3-15s9 1 9 9c0 17-3 19-12 6z"/><path d="m3593 1583c9-2 23-2 30 0 6 3-1 5-18 5-16 0-22-2-12-5z"/><path d="m3647 1578c2-5 88-7 191-6 211 2 194 6-40 10-86 2-154 0-151-4z"/><path d="m1296 1550c3-19 10-39 15-44 14-15 11 8-6 45l-16 34z"/><path d="m1330 1560c-13-8-13-10 2-10 9 0 20 5 23 10 8 13-5 13-25 0z"/><path d="m4285 1553c-87-10-96-29-15-34 35-2 44 1 42 12-3 11-1 12 9 2 7-7 23-13 35-13s25 6 28 13c5 10 7 10 12 0 3-7 23-13 45-13 29 0 37 3 33 14s-22 15-62 15c-32 0-66 2-77 4-11 1-33 1-50 0zm72-19c-3-3-12-4-19-1-8 3-5 6 6 6 11 1 17-2 13-5z"/><path d="m4132 1538c-20-20-14-25 34-25 35 0 44 3 40 14-4 8-6 17-6 19 0 10-57 3-68-8zm51-10c-2-5-10-8-18-8s-16 3-18 8c-3 4 5 7 18 7s21-3 18-7z"/><path d="m4490 1541c0-5 9-7 20-4s20 7 20 9-9 4-20 4-20-4-20-9z"/><path d="m4526 1535c-19-14-18-15 17-15 20 0 37 5 37 10 0 6 5 10 11 10 5 0 7-4 4-10-3-5 3-10 14-10 12 0 21 7 21 15 0 20-78 20-104 0z"/><path d="m4090 1525c0-8 4-15 8-15 5 0 9 7 9 15s-4 15-9 15c-4 0-8-7-8-15z"/><path d="m4048 1513c7-3 16-2 19 1 4 3-2 6-13 5-11 0-14-3-6-6z"/><path d="m3991 1494c0-11 3-14 6-6 3 7 2 16-1 19-3 4-6-2-5-13z"/><path d="m4248 1483c12-2 32-2 45 0 12 2 2 4-23 4s-35-2-22-4z"/><path d="m3629 1467c8-8 71-13 189-15 120-3 179-7 184-15 5-7 8-3 8 10v23l-152-6c-92-4-171-2-197 4-33 8-41 8-32-1z"/><path d="m1105 1450c-3-5 1-10 10-10s13 5 10 10c-3 6-8 10-10 10s-7-4-10-10z"/><path d="m4352 1430c0-14 2-19 5-12 2 6 2 18 0 25-3 6-5 1-5-13z"/><path d="m4410 1429c0-24 23-21 28 4 2 10-3 17-12 17-10 0-16-9-16-21z"/><path d="m4480 1439c0-5 5-7 10-4 6 3 10 8 10 11 0 2-4 4-10 4-5 0-10-5-10-11z"/><path d="m410 1410c0-13 11-13 30 0 12 8 11 10-7 10-13 0-23-4-23-10z"/><path d="m4000 1411c0-6 4-13 10-16s7 1 4 9c-7 18-14 21-14 7z"/><path d="m4286 1398c3-4 9-8 15-8 5 0 9 4 9 8 0 5-7 9-15 9s-12-4-9-9z"/><path d="m4530 1406c0-2 7-7 16-10 8-3 12-2 9 4-6 10-25 14-25 6z"/><path d="m4584 1392c-18-12-25-42-10-42 8 0 16 11 18 25 3 14 5 25 4 25 0 0-6-4-12-8z"/><path d="m3975 1380c3-5 8-10 11-10 2 0 4 5 4 10 0 6-5 10-11 10-5 0-7-4-4-10z"/><path d="m4068 1383c6-2 18-2 25 0 6 3 1 5-13 5s-19-2-12-5z"/><path d="m4236 1379c4-7 44 0 44 7 0 2-11 3-24 2-14-1-23-5-20-9z"/><path d="m4351 1386c12-10 60-16 54-6-3 5-18 10-32 10-15 0-24-2-22-4z"/><path d="m4422 1370c0-14 2-19 5-12 2 6 2 18 0 25-3 6-5 1-5-13z"/><path d="m4446 1377c3-10 9-15 12-12s0 11-7 18c-10 9-11 8-5-6z"/><path d="m267 1359c7-7 21-7 44-1l34 10-44 1c-32 1-42-2-34-10z"/><path d="m357 1363c-3-5 27-7 66-5 122 4 136 9 35 10-53 1-99-1-101-5z"/><path d="m4477 1364c-3-3-3-12 0-20s1-14-5-14-12 5-14 12c-3 9-6 9-12 0-4-7-3-12 3-12s8-8 5-17c-5-16-4-16 6-3s11 13 7 0c-5-19-74-16-93 3-4 4-25 7-46 7s-38 4-38 9-7 12-16 15c-8 3-12 2-9-4s-1-7-9-4c-9 3-13 10-10 16 3 5-3 4-14-3-25-16-26-15 24-33 21-8 32-15 23-15-9-1-33 6-54 14-39 17-75 12-75-9 0-8 10-11 32-8 25 4 30 2 25-11-3-9 1-21 9-27 15-13 19-39 7-41-5-1-24-3-43-4-19-2-53-5-76-8-45-6-56-2-73 31-6 12-20 22-29 22-10 0-24 6-31 13-8 6-11 7-8 1 4-7-11-11-45-13-62-2-70-7-34-21 14-5 41-26 59-47 17-20 54-54 80-75l49-38h101c141 0 207 9 207 28 0 9-7 13-20 9-11-3-18-1-14 4 3 5 16 9 30 9 19 0 24-5 24-25 0-30 7-31 33-7 15 12 21 14 24 5s30-13 89-13h84v93 94l-37 11c-20 6-40 9-44 7-4-3-9 2-12 10-5 11 1 13 28 10 19-3 36-1 40 4 3 5-17 9-44 8-49 0-86 16-75 34 6 10 0 12-9 3zm30-70c-3-3-12-4-19-1-8 3-5 6 6 6 11 1 17-2 13-5zm-427-130c0-2-9-4-20-4s-20 4-20 9 9 7 20 4 20-7 20-9zm261-11c-8-15-10-15-11-2 0 17 10 32 18 25 2-3-1-13-7-23zm257-35c-7-20-84-22-91-4-5 13 3 16 44 16 36 0 49-4 47-12z"/><path d="m3951 1326c-15-9-20-16-12-20 6-4 11-3 11 2s13 9 30 9c16 0 27-5 23-10-3-6-1-7 6-3s10 13 8 19c-5 16-39 17-66 3z"/><path d="m4067 1324c-6-6 16-34 26-34 3 0 7 7 10 14 4 11 1 13-10 9s-14-2-9 5c7 12-6 17-17 6z"/><path d="m433 1283c15-2 39-2 55 0 15 2 2 4-28 4s-43-2-27-4z"/><path d="m92 1271c-11-7-11-9 1-14 9-3 18 1 21 9 6 16-2 18-22 5z"/><path d="m126 1271c-4-7-5-15-2-18 9-9 19 4 14 18-4 11-6 11-12 0z"/><path d="m240 1272c0-15 21-19 60-11 27 5 29 7 10 8-14 1-35 4-47 7-13 4-23 2-23-4z"/><path d="m384 1261c5-8 3-12-5-10-34 4-51-2-45-16 4-11-2-15-22-14-23 0-24 2-8 8 19 7 19 8-2 13-17 5-22 2-22-12 0-11-4-22-10-25-24-15-6-21 38-14 26 4 53 8 60 8 6 1 12 7 12 15 0 19 22 26 86 26 30 0 54 5 54 10 0 6-24 10-54 10s-62 3-72 7c-12 4-15 3-10-6z"/><path d="m27 1233c18-2 50-2 70 0 21 2 7 4-32 4-38 0-55-2-38-4z"/><path d="m203 1233c9-2 23-2 30 0 6 3-1 5-18 5-16 0-22-2-12-5z"/><path d="m0 1195c0-10 10-15 31-15 17 0 28 4 24 10-3 6 1 10 10 10s13-4 10-10c-4-6 10-10 34-10 23 0 41 4 41 9s10 12 23 14c12 2-22 5-75 6-81 1-98-2-98-14z"/><path d="m208 1203c6-2 18-2 25 0 6 3 1 5-13 5s-19-2-12-5z"/><path d="m4410 1050c0-5 5-10 11-10 5 0 7 5 4 10-3 6-8 10-11 10-2 0-4-4-4-10z"/><path d="m4573 1033c9-2 23-2 30 0 6 3-1 5-18 5-16 0-22-2-12-5z"/><path d="m4150 1005c13-14 25-25 27-25s3 11 3 25c0 20-5 25-27 25h-26z"/><path d="m4230 995c0-28 4-35 20-35s20 7 20 35-4 35-20 35-20-7-20-35z"/><path d="m4320 995v-35h50 50v36c0 31-2 35-15 24-10-9-15-9-15-1 0 6-16 11-35 11-33 0-35-2-35-35z"/><path d="m4460 1016c0-8 6-17 13-20 6-3 0-4-15-1-23 4-28 2-28-14 0-11 6-22 13-24 10-4 10-6 0-6-30-2-10-21 21-21 40 0 45-10 45-83-1-27 2-51 5-54 3-4 6 23 6 59 0 74 4 78 68 73l42-3v49c0 48-1 49-30 49-28 0-30-3-31-37-1-24-3-29-6-15-3 17-11 22-34 22-22 0-29 5-29 20 0 13-7 20-20 20-11 0-20-6-20-14zm35-56c-3-5-10-10-16-10-5 0-9 5-9 10 0 6 7 10 16 10 8 0 12-4 9-10zm55 0c0-5-5-10-11-10-5 0-7 5-4 10 3 6 8 10 11 10 2 0 4-4 4-10z"/><path d="m148 993c23-2 59-2 80 0 20 2 1 4-43 4s-61-2-37-4z"/><path d="m31 948c0-10-8-18-16-18s-15-5-15-11 9-9 19-6c14 3 18 1 14-10-3-8-12-12-19-9-8 3-14 1-14-4 0-6 37-9 88-8l87 2-70 6c-38 4-62 7-52 8 9 1 17 7 17 13 0 5-5 7-12 3-8-5-9-2-5 10 4 9 3 14-2 11s-12 3-14 12c-4 17-5 17-6 1z"/><path d="m4320 891c0-11 5-32 10-47 10-26 11-27 28-8 9 10 23 31 29 47 13 27 12 27-27 27-33 0-40-3-40-19z"/><path d="m4621 884c0-11 3-14 6-6 3 7 2 16-1 19-3 4-6-2-5-13z"/><path d="m145 863c11-3 24-9 30-14 5-5 23-8 40-8 19 1 23 3 11 6-11 3-14 8-8 12 5 3-13 7-41 7-29 1-43-1-32-3z"/><path d="m25 850c-20-5-1-7 54-8 46 0 82 1 80 2-9 8-107 12-134 6z"/><path d="m72 805c0-16 2-22 5-12 2 9 2 23 0 30-3 6-5-1-5-18z"/><path d="m148 818c9-9 15-9 24 0s7 12-12 12-21-3-12-12z"/><path d="m241 814c0-11 3-14 6-6 3 7 2 16-1 19-3 4-6-2-5-13z"/><path d="m4506 753c4-16 8-29 9-31 8-9 95-30 95-23 0 5-20 14-45 20-38 10-45 15-45 36 0 14-5 25-10 25-6 0-8-11-4-27z"/><path d="m240 722c0-5 14-7 30-4 17 2 30 6 30 8s-13 4-30 4c-16 0-30-4-30-8z"/><path d="m80 695c0-11-11-15-40-15h-40l1-57c2-71 4-75 35-63 14 6 39 12 57 16 18 3 37 10 42 16 7 7 0 8-24 3-26-6-32-4-29 6 3 8 17 14 31 14 14 1 29 4 33 7 3 4 15 2 25-5 14-9 21-9 31 2 11 11 10 12-1 6-9-5-12-4-7 3 4 6 13 9 22 5 21-8 105 18 101 31-2 6-18 12-35 14-24 2-32-1-32-12 0-10-9-16-25-16-14 0-25 4-25 8 0 11 45 32 68 32 12 0 14 2 4 8-19 12-78 2-61-10 9-6 2-7-21-3-19 3-43 6-52 6-10 0-18 4-18 10 0 5-9 9-20 9s-20-7-20-15zm80-30c0-10-11-15-35-15-40 0-45 7-12 20s47 12 47-5zm-101-11c7-6-2-12-24-16-12-2-21 3-23 15-3 16 0 18 20 12 12-4 25-9 27-11z"/><path d="m4450 679c0-5 6-9 13-9 8 0 22-9 32-20 11-12 25-18 34-15 8 3 12 3 8-1-12-12 66-43 81-31 39 30-12 69-80 60-29-4-39-3-34 5 4 7 1 12-6 13-7 0-21 2-30 4-10 2-18-1-18-6z"/><path d="m150 604c0-8 5-12 10-9 6 4 8 11 5 16-9 14-15 11-15-7z"/><path d="m250 491c0-5-8-12-17-14-15-4-15-5-2-6 9 0 22 6 29 14 9 10 9 15 1 15-6 0-11-4-11-9z"/><path d="m320 450c0-5 5-10 10-10 6 0 10 5 10 10 0 6-4 10-10 10-5 0-10-4-10-10z"/><path d="m366 444c-5-14-4-15 9-4 17 14 19 20 6 20-5 0-12-7-15-16z"/><path d="m250 428c0-9-6-19-12-21-10-4-10-6 0-6 14-1 28 26 18 36-3 4-6-1-6-9z"/><path d="m320 400c-8-5-18-7-22-4s-5-9-1-27c4-19 2-30-3-26-6 3-15-3-22-14-16-25-7-24 31 5 18 13 41 26 52 29 14 3 11 5-10 6-28 2-29 3-12 15 20 16 9 30-13 16z"/><path d="m210 360c0-5 5-10 10-10 6 0 10 5 10 10 0 6-4 10-10 10-5 0-10-4-10-10z"/><path d="m114 341c4-5 0-12-6-14-8-4-9-6-2-6 6-1 17 6 24 14 10 12 9 15-4 15-10 0-15-4-12-9z"/><path d="m233 326c1-6-11-10-28-9-16 0-24-1-17-4 6-2 9-10 5-16-4-7 0-8 11-4 10 4 22 7 26 7 5 0 14 8 19 18 7 14 6 19-4 19-8 0-13-5-12-11z"/><path d="m40 300c0-5 7-10 16-10 8 0 12 5 9 10-3 6-10 10-16 10-5 0-9-4-9-10z"/><path d="m85 300c-3-5-1-10 4-10 6 0 11 5 11 10 0 6-2 10-4 10-3 0-8-4-11-10z"/><path d="m287 292c-10-10-17-23-17-28 1-5 9 1 19 13s22 19 26 15c5-4 5-1 1 6-9 16-10 15-29-6z"/><path d="m104 278c-3-4 4-8 15-8 12 0 21 4 21 8 0 5-7 9-15 9-9 0-18-4-21-9z"/><path d="m240 280c0-5 5-10 11-10 5 0 7 5 4 10-3 6-8 10-11 10-2 0-4-4-4-10z"/><path d="m50 234c0-8 9-14 19-14 30 0 34 17 6 22-17 4-25 1-25-8z"/><path d="m3 186c0-8 7-12 15-8 11 4 14 1 9-11-5-13-1-17 16-17 16 0 18 3 8 9-7 5-10 14-7 20 4 6 12 9 17 6 5-4 9-2 9 3s-15 9-33 10c-22 1-34-3-34-12z"/><path d="m4615 160c3-5 8-10 11-10 2 0 4 5 4 10 0 6-5 10-11 10-5 0-7-4-4-10z"/><path d="m281 134c-15-16-32-24-43-21-24 7-42-26-42-76-1-39 1-41 48-21 14 5 17 4 12-4s3-12 23-12c34 0 43 24 19 49-7 7-8 11-3 10 25-6 41 14 44 53 1 32-1 39-13 35-8-3-16-2-18 3s-14-2-27-16zm-10-71c-6-10-11-12-11-5 0 6-7 12-16 12-12 0-15-6-10-25 4-14 2-25-4-25-5 0-10 19-10 43 0 26 3 37 9 29 6-10 11-10 21 3 12 15 14 15 22 1 5-10 5-23-1-33zm39 37c-20-13-33-13-25 0 3 6 14 10 23 10 15 0 15-2 2-10z"/><path d="m135 10c4-6 11-8 16-5 14 9 11 15-7 15-8 0-12-5-9-10z"/></g></svg>